<?xml version="1.0" encoding="utf-8"?>
<!-- Generator: Adobe Illustrator 24.2.1, SVG Export Plug-In . SVG Version: 6.00 Build 0)  -->
<svg version="1.1" id="Layer_1" xmlns="http://www.w3.org/2000/svg" xmlns:xlink="http://www.w3.org/1999/xlink" x="0px" y="0px"
	 viewBox="0 0 1180.7 214.77" style="enable-background:new 0 0 1180.7 214.77;" xml:space="preserve">
<style type="text/css">
	.st0{fill:#FFFFFF;}
	.st1{fill:#FFFFFF;stroke:#FFFFFF;stroke-miterlimit:10;}
</style>
<path class="st0" d="M110.97,9.36c-54.95,0-99.5,44.55-99.5,99.5c0,54.95,44.55,99.5,99.5,99.5c54.95,0,99.5-44.55,99.5-99.5
	C210.47,53.9,165.92,9.36,110.97,9.36z M110.97,191.11c-45.43,0-82.25-36.82-82.25-82.25c0-45.43,36.82-82.25,82.25-82.25
	c45.43,0,82.25,36.82,82.25,82.25C193.22,154.28,156.4,191.11,110.97,191.11z"/>
<path class="st1" d="M110.97,43.86c-35.9,0-65,29.1-65,65c0,35.9,29.1,65,65,65s65-29.1,65-65
	C175.97,72.96,146.87,43.86,110.97,43.86z M145.72,131.61c0,6.63-5.37,12-12,12h-45.5c-6.63,0-12-5.37-12-12v-45.5
	c0-6.63,5.37-12,12-12h45.5c6.63,0,12,5.37,12,12V131.61z"/>
<path class="st0" d="M251.3,46.04h28.62l39.96,93.42l39.96-93.42h28.44v125.63h-25.2V89.96l-33.66,81.72h-19.08L276.5,89.96v81.72
	h-25.2V46.04z"/>
<path class="st0" d="M490.16,147.83h-50.04l-8.28,23.94h-26.46l45.18-125.81h29.34l45.18,125.81h-26.64L490.16,147.83z
	 M465.14,75.11l-18.18,52.56h36.36L465.14,75.11z"/>
<path class="st0" d="M585.38,173.2c-26.1,0-46.26-13.68-46.62-37.44h27c0.72,10.08,7.38,16.74,19.08,16.74
	c11.88,0,18.9-6.3,18.9-15.3c0-27.18-64.8-10.8-64.62-56.34c0-22.68,18.36-36.36,44.28-36.36c25.74,0,43.38,13.14,45,35.82h-27.72
	c-0.54-8.28-7.2-14.76-18-14.94c-9.9-0.36-17.28,4.5-17.28,14.76c0,25.2,64.44,11.16,64.44,55.44
	C629.83,155.38,614,173.2,585.38,173.2z"/>
<path class="st0" d="M709.22,44.69c27.9,0,50.58,14.94,59.04,40.68h-28.98c-5.94-12.06-16.74-18-30.24-18
	c-21.96,0-37.62,16.02-37.62,41.58c0,25.38,15.66,41.58,37.62,41.58c13.5,0,24.3-5.94,30.24-18.18h28.98
	c-8.46,25.92-31.14,40.68-59.04,40.68c-36.18,0-63.72-26.46-63.72-64.08C645.5,71.33,673.04,44.69,709.22,44.69z"/>
<path class="st0" d="M868.87,118.22h-53.82v53.46h-25.2V46.04h25.2V97.7h53.82V46.04h25.2v125.63h-25.2V118.22z"/>
<path class="st0" d="M918.92,46.04h25.2v125.63h-25.2V46.04z"/>
<path class="st0" d="M1076.41,45.95v125.81h-25.2l-57.06-86.22v86.22h-25.2V45.95h25.2l57.06,86.4v-86.4H1076.41z"/>
<path class="st0" d="M1174.15,66.47h-47.7v31.5h42.3v19.98h-42.3v33.3h47.7v20.52h-72.9V45.95h72.9V66.47z"/>
</svg>
